<svg xmlns="http://www.w3.org/2000/svg" xmlns:xlink="http://www.w3.org/1999/xlink" viewBox="0 0 64 64"><defs><style>.cls-1,.cls-2{fill:none;}.cls-1{clip-rule:evenodd;}.cls-2{stroke:#a9ba5a;stroke-linecap:round;stroke-linejoin:round;stroke-width:2px;}.cls-3{fill:#ce714b;}.cls-4{fill:#101d2f;}.cls-5{fill:#fff;}.cls-6{clip-path:url(#clip-path);}.cls-7{clip-path:url(#clip-path-2);}.cls-8{clip-path:url(#clip-path-3);}</style><clipPath id="clip-path"><path class="cls-1" d="M-367,151.45v18.08a3,3,0,0,0,3,3h24a3,3,0,0,0,3-3V154.47a3,3,0,0,0-3-3Z"/></clipPath><clipPath id="clip-path-2"><path class="cls-1" d="M-342.4,159.35v7.72h-2.4V166a2,2,0,0,1-.38.5,2.36,2.36,0,0,1-.54.4,3.06,3.06,0,0,1-.67.28,3,3,0,0,1-.72.1,3.5,3.5,0,0,1-1.5-.31,3.46,3.46,0,0,1-1.17-.85,3.82,3.82,0,0,1-.76-1.28,4.94,4.94,0,0,1-.26-1.61,4.94,4.94,0,0,1,.26-1.61,3.72,3.72,0,0,1,.76-1.28,3.46,3.46,0,0,1,1.17-.85,3.5,3.5,0,0,1,1.5-.31,2.55,2.55,0,0,1,.72.1,3.63,3.63,0,0,1,.67.28,2.79,2.79,0,0,1,.54.42,2.45,2.45,0,0,1,.38.5v-1.11Zm-4.21,5.83a1.64,1.64,0,0,0,.74-.16,1.71,1.71,0,0,0,.56-.43,1.83,1.83,0,0,0,.37-.62,2.14,2.14,0,0,0,.14-.76,2,2,0,0,0-.14-.75,2,2,0,0,0-.37-.63,1.71,1.71,0,0,0-.56-.43,1.64,1.64,0,0,0-.74-.16,1.64,1.64,0,0,0-.74.16,1.71,1.71,0,0,0-.56.43,2,2,0,0,0-.37.63,2,2,0,0,0-.14.75,2.14,2.14,0,0,0,.14.76,1.83,1.83,0,0,0,.37.62,1.71,1.71,0,0,0,.56.43A1.64,1.64,0,0,0-346.61,165.18Zm-7.55,1.78-.42-1.35h-3.89l-.43,1.35h-2.7l3.91-11.1h2.33l4,11.1Zm-2.36-7.93-1.34,4.57h2.66Z"/></clipPath><clipPath id="clip-path-3"><path class="cls-1" d="M-352,151.34l-3-3h-9a3,3,0,0,0-3,3Z"/></clipPath></defs><title>Extensis_Icon_forReviewKG</title><g id="_res"><rect class="cls-2" x="-447" y="-12" width="1224" height="87"/></g><g id="automate-workflow-ico"><rect class="cls-3" x="10" y="29" width="25" height="25"/><rect class="cls-4" x="10" y="11" width="12" height="12"/><rect class="cls-5" x="13" y="42" width="9" height="9"/><rect class="cls-4" x="17.82" y="15" width="8" height="3.97" transform="translate(43.63 33.97) rotate(180)"/><polygon class="cls-4" points="29.82 16.96 25 21.96 25 11.96 29.82 16.96"/><rect class="cls-3" x="25.25" y="27.22" width="9.5" height="4" transform="translate(0.78 59.22) rotate(-90)"/><polygon class="cls-3" points="29.82 20.96 34.5 25.96 25.13 25.96 29.82 20.96"/><rect class="cls-4" x="22" y="32" width="10" height="10"/><rect class="cls-4" x="40" y="48" width="12" height="6"/><rect class="cls-3" x="40" y="36" width="12" height="6"/><rect class="cls-4" x="40" y="24" width="12" height="6"/><rect class="cls-3" x="40" y="12" width="12" height="6"/></g></svg>