<svg xmlns="http://www.w3.org/2000/svg" xmlns:xlink="http://www.w3.org/1999/xlink" viewBox="0 0 64 64"><defs><style>.cls-1,.cls-2{fill:none;}.cls-1{clip-rule:evenodd;}.cls-2{stroke:#a9ba5a;stroke-linecap:round;stroke-linejoin:round;stroke-width:2px;}.cls-3{fill:#ce714b;}.cls-4{fill:#101d2f;}.cls-5{fill:#fff;}.cls-6{clip-path:url(#clip-path);}.cls-7{clip-path:url(#clip-path-2);}.cls-8{clip-path:url(#clip-path-3);}</style><clipPath id="clip-path"><path class="cls-1" d="M17,151.45v18.08a3,3,0,0,0,3,3H44a3,3,0,0,0,3-3V154.47a3,3,0,0,0-3-3Z"/></clipPath><clipPath id="clip-path-2"><path class="cls-1" d="M41.6,159.35v7.72H39.2V166a2,2,0,0,1-.38.5,2.36,2.36,0,0,1-.54.4,3.06,3.06,0,0,1-.67.28,3,3,0,0,1-.72.1,3.5,3.5,0,0,1-1.5-.31,3.46,3.46,0,0,1-1.17-.85,3.82,3.82,0,0,1-.76-1.28,5.11,5.11,0,0,1,0-3.22,3.72,3.72,0,0,1,.76-1.28,3.46,3.46,0,0,1,1.17-.85,3.5,3.5,0,0,1,1.5-.31,2.55,2.55,0,0,1,.72.1,3.63,3.63,0,0,1,.67.28,2.79,2.79,0,0,1,.54.42,2.45,2.45,0,0,1,.38.5v-1.11Zm-4.21,5.83a1.64,1.64,0,0,0,.74-.16,1.71,1.71,0,0,0,.56-.43,1.83,1.83,0,0,0,.37-.62,2.14,2.14,0,0,0,.14-.76,2,2,0,0,0-.14-.75,2,2,0,0,0-.37-.63,1.71,1.71,0,0,0-.56-.43,1.79,1.79,0,0,0-1.48,0,1.71,1.71,0,0,0-.56.43,2,2,0,0,0-.37.63,2,2,0,0,0-.14.75,2.14,2.14,0,0,0,.14.76,1.83,1.83,0,0,0,.37.62,1.71,1.71,0,0,0,.56.43A1.64,1.64,0,0,0,37.39,165.18ZM29.84,167l-.42-1.35H25.53L25.1,167H22.4l3.91-11.1h2.33l4,11.1ZM27.48,159l-1.34,4.57H28.8Z"/></clipPath><clipPath id="clip-path-3"><path class="cls-1" d="M32,151.34l-3-3H20a3,3,0,0,0-3,3Z"/></clipPath></defs><title>Extensis_Icon_forReviewKG</title><g id="_res"><rect class="cls-2" x="-63" y="-12" width="1224" height="87"/></g><g id="automatic-keywording-ico"><rect class="cls-3" x="9" y="7" width="47" height="10"/><rect class="cls-4" x="9" y="16.23" width="47" height="40.77"/><rect class="cls-5" x="28" y="16" width="23" height="11"/><rect class="cls-4" x="32" y="19" width="3" height="5"/><rect class="cls-4" x="38" y="19" width="3" height="5"/><rect class="cls-4" x="44" y="19" width="3" height="5"/><rect class="cls-3" x="16" y="32" width="19" height="19"/><rect class="cls-5" x="29" y="43" width="3" height="5"/><rect class="cls-5" x="24" y="43" width="3" height="5"/><rect class="cls-5" x="39" y="42" width="10" height="9"/><rect class="cls-3" x="44" y="39" width="3" height="5"/><circle class="cls-5" cx="14" cy="12" r="1.31"/><circle class="cls-4" cx="19" cy="12" r="1.31"/></g></svg>