<svg xmlns="http://www.w3.org/2000/svg" xmlns:xlink="http://www.w3.org/1999/xlink" viewBox="0 0 64 64"><defs><style>.cls-1,.cls-2{fill:none;}.cls-1{clip-rule:evenodd;}.cls-2{stroke:#a9ba5a;stroke-linecap:round;stroke-linejoin:round;stroke-width:2px;}.cls-3{fill:#ce714b;}.cls-4{fill:#101d2f;}.cls-5{fill:#fff;}.cls-6{clip-path:url(#clip-path);}.cls-7{clip-path:url(#clip-path-2);}.cls-8{clip-path:url(#clip-path-3);}</style><clipPath id="clip-path"><path class="cls-1" d="M-239,151.45v18.08a3,3,0,0,0,3,3h24a3,3,0,0,0,3-3V154.47a3,3,0,0,0-3-3Z"/></clipPath><clipPath id="clip-path-2"><path class="cls-1" d="M-214.4,159.35v7.72h-2.4V166a2,2,0,0,1-.38.5,2.36,2.36,0,0,1-.54.4,3.06,3.06,0,0,1-.67.28,3,3,0,0,1-.72.1,3.5,3.5,0,0,1-1.5-.31,3.46,3.46,0,0,1-1.17-.85,3.82,3.82,0,0,1-.76-1.28,4.94,4.94,0,0,1-.26-1.61,4.94,4.94,0,0,1,.26-1.61,3.72,3.72,0,0,1,.76-1.28,3.46,3.46,0,0,1,1.17-.85,3.5,3.5,0,0,1,1.5-.31,2.55,2.55,0,0,1,.72.1,3.63,3.63,0,0,1,.67.28,2.79,2.79,0,0,1,.54.42,2.45,2.45,0,0,1,.38.5v-1.11Zm-4.21,5.83a1.64,1.64,0,0,0,.74-.16,1.71,1.71,0,0,0,.56-.43,1.83,1.83,0,0,0,.37-.62,2.14,2.14,0,0,0,.14-.76,2,2,0,0,0-.14-.75,2,2,0,0,0-.37-.63,1.71,1.71,0,0,0-.56-.43,1.64,1.64,0,0,0-.74-.16,1.64,1.64,0,0,0-.74.16,1.71,1.71,0,0,0-.56.43,2,2,0,0,0-.37.63,2,2,0,0,0-.14.75,2.14,2.14,0,0,0,.14.76,1.83,1.83,0,0,0,.37.62,1.71,1.71,0,0,0,.56.43A1.64,1.64,0,0,0-218.61,165.18Zm-7.55,1.78-.42-1.35h-3.89l-.43,1.35h-2.7l3.91-11.1h2.33l4,11.1Zm-2.36-7.93-1.34,4.57h2.66Z"/></clipPath><clipPath id="clip-path-3"><path class="cls-1" d="M-224,151.34l-3-3h-9a3,3,0,0,0-3,3Z"/></clipPath></defs><title>Extensis_Icon_forReviewKG</title><g id="_res"><rect class="cls-2" x="-319" y="-12" width="1224" height="87"/></g><g id="powerful-search-tools-ico-2" data-name="powerful-search-tools-ico"><rect class="cls-3" x="4" y="10" width="46" height="9"/><rect class="cls-4" x="4" y="19" width="46" height="40"/><rect class="cls-5" x="10" y="35" width="19" height="19"/><rect class="cls-3" x="10" y="26" width="19" height="5"/><circle class="cls-5" cx="8.69" cy="14.61" r="1.31"/><circle class="cls-4" cx="13.69" cy="14.61" r="1.31"/><rect class="cls-3" x="52.25" y="34.75" width="5.14" height="18" transform="translate(-14.88 51.58) rotate(-45)"/><circle class="cls-3" cx="44.62" cy="33.53" r="9.82"/><circle class="cls-5" cx="44.62" cy="33.53" r="6.16"/><rect class="cls-4" x="42" y="31" width="5" height="5" transform="translate(36.72 -21.65) rotate(45)"/><rect class="cls-3" x="17" y="42" width="5" height="5" transform="translate(37.18 -0.75) rotate(45)"/></g></svg>